{"title":"Smallville S10E14 HDTV_JHW.mp4","uid":6185008,"size":404303709,"categoryP":"video","categoryS":"tv_shows","magnet":"?xt=urn:btih:7af098f3c3bbd7a9ed9b281da1ed72afed4e06a5&amp;dn=Smallville+S10E14+HDTV_JHW.mp4&amp;tr=udp%3A%2F%2Ftracker.openbittorrent.com%3A80&amp;tr=udp%3A%2F%2Fopen.demonii.com%3A1337&amp;tr=udp%3A%2F%2Ftracker.coppersurfer.tk%3A6969&amp;tr=udp%3A%2F%2Fexodus.desync.com%3A6969","seeders":1,"leechers":0,"uploader":"jameshotwire","files":1,"time":1298089447,"description":"Masquerade (#10.14) aired 2/18/2011\n\nChloe and Oliver are mistaken for FBI agents investigating Desaad's recent string of murders and the pair are kidnapped by Desaad's minions. Desaad tries to infect Chloe with the darkness. Meanwhile, Lois tells Clark he needs to be more careful with his identity and suggests a disguise\n\nGeneral\nComplete name                    :Smallville S10E14 HDTV_JHW.mp4\nFormat                           : MPEG-4\nFormat profile                   : Base Media\nCodec ID                         : isom\nFile size                        : 386 MiB\nDuration                         : 41mn 31s\nOverall bit rate                 : 1 298 Kbps\nEncoded date                     : UTC 2011-02-19 02:49:36\nTagged date                      : UTC 2011-02-19 02:49:36\n\nVideo\nID                               : 2\nFormat                           : AVC\nFormat/Info                      : Advanced Video Codec\nFormat profile                   : &lt;a class=&quot;__cf_email__&quot; href=&quot;/cdn-cgi/l/email-protection&quot; data-cfemail=&quot;b5f7d4c6d0d9dcdbd0f5f9869b85&quot;&gt;[email&amp;#160;protected]&lt;/a&gt;&lt;script cf-hash='f9e31' type=&quot;text/javascript&quot;&gt;\n/* &lt;![CDATA[ */!function(){try{var t=&quot;currentScript&quot;in document?document.currentScript:function(){for(var t=document.getElementsByTagName(&quot;script&quot;),e=t.length;e--;)if(t[e].getAttribute(&quot;cf-hash&quot;))return t[e]}();if(t&amp;&amp;t.previousSibling){var e,r,n,i,c=t.previousSibling,a=c.getAttribute(&quot;data-cfemail&quot;);if(a){for(e=&quot;&quot;,r=parseInt(a.substr(0,2),16),n=2;a.length-n;n+=2)i=parseInt(a.substr(n,2),16)^r,e+=String.fromCharCode(i);e=document.createTextNode(e),c.parentNode.replaceChild(e,c)}}}catch(u){}}();/* ]]&gt; */&lt;/script&gt;\nFormat settings, CABAC           : No\nFormat settings, ReFrames        : 1 frame\nCodec ID                         : avc1\nCodec ID/Info                    : Advanced Video Coding\nDuration                         : 41mn 30s\nBit rate mode                    : Constant\nBit rate                         : 1 200 Kbps\nWidth                            : 640 pixels\nHeight                           : 480 pixels\nDisplay aspect ratio             : 4:3\nFrame rate mode                  : Constant\nFrame rate                       : 23.976 fps\nColor space                      : YUV\nChroma subsampling               : 4:2:0\nBit depth                        : 8 bits\nScan type                        : Progressive\nBits/(Pixel*Frame)               : 0.163\nStream size                      : 355 MiB (92%)\nLanguage                         : English\n\nAudio\nID                               : 1\nFormat                           : AAC\nFormat/Info                      : Advanced Audio Codec\nFormat profile                   : LC\nCodec ID                         : 40\nDuration                         : 41mn 31s\nBit rate mode                    : Constant\nBit rate                         : 96.0 Kbps\nChannel(s)                       : 2 channels\nChannel positions                : Front: L R\nSampling rate                    : 44.1 KHz\nCompression mode                 : Lossy\nStream size                      : 28.5 MiB (7%)\nLanguage                         : English\n &lt;a href=&quot;\nhttp://img811.imageshack.us/img811/3547/vlcsnap2011021821h52m10.png&quot; rel=&quot;nofollow&quot; target=&quot;_NEW&quot;&gt;\nhttp://img811.imageshack.us/img811/3547/vlcsnap2011021821h52m10.png&lt;/a&gt;\n &lt;a href=&quot;\nhttp://img262.imageshack.us/img262/3600/vlcsnap2011021821h52m34.png&quot; rel=&quot;nofollow&quot; target=&quot;_NEW&quot;&gt;\nhttp://img262.imageshack.us/img262/3600/vlcsnap2011021821h52m34.png&lt;/a&gt;\n &lt;a href=&quot;\nhttp://img156.imageshack.us/img156/6017/vlcsnap2011021821h53m11.png&quot; rel=&quot;nofollow&quot; target=&quot;_NEW&quot;&gt;\nhttp://img156.imageshack.us/img156/6017/vlcsnap2011021821h53m11.png&lt;/a&gt;\n &lt;a href=&quot;\nhttp://img153.imageshack.us/img153/4392/vlcsnap2011021821h53m24.png&quot; rel=&quot;nofollow&quot; target=&quot;_NEW&quot;&gt;\nhttp://img153.imageshack.us/img153/4392/vlcsnap2011021821h53m24.png&lt;/a&gt;\n &lt;a href=&quot;\nhttp://img813.imageshack.us/img813/5531/vlcsnap2011021821h54m16.png&quot; rel=&quot;nofollow&quot; target=&quot;_NEW&quot;&gt;\nhttp://img813.imageshack.us/img813/5531/vlcsnap2011021821h54m16.png&lt;/a&gt;\n &lt;a href=&quot;\nhttp://img138.imageshack.us/img138/8194/vlcsnap2011021821h54m30.png&quot; rel=&quot;nofollow&quot; target=&quot;_NEW&quot;&gt;\nhttp://img138.imageshack.us/img138/8194/vlcsnap2011021821h54m30.png&lt;/a&gt;\n &lt;a href=&quot;\nhttp://img403.imageshack.us/img403/974/vlcsnap2011021821h54m59.png&quot; rel=&quot;nofollow&quot; target=&quot;_NEW&quot;&gt;\nhttp://img403.imageshack.us/img403/974/vlcsnap2011021821h54m59.png&lt;/a&gt;","torrent":{"xt":"urn:btih:7af098f3c3bbd7a9ed9b281da1ed72afed4e06a5","amp;dn":"Smallville+S10E14+HDTV_JHW.mp4","amp;tr":["udp%3A%2F%2Ftracker.openbittorrent.com%3A80","udp%3A%2F%2Fopen.demonii.com%3A1337","udp%3A%2F%2Ftracker.coppersurfer.tk%3A6969","udp%3A%2F%2Fexodus.desync.com%3A6969"],"infoHash":"7af098f3c3bbd7a9ed9b281da1ed72afed4e06a5","infoHashBuffer":{"type":"Buffer","data":[122,240,152,243,195,187,215,169,237,155,40,29,161,237,114,175,237,78,6,165]},"announce":[],"urlList":[]}}